<svg xmlns="http://www.w3.org/2000/svg" viewBox="0 0 800 600" fill="none" role="img">

  <defs>
    <linearGradient id="bg" x1="0" y1="0" x2="1" y2="1">
      <stop offset="0%" stop-color="#0A0F1C"/>
      <stop offset="45%" stop-color="#151032"/>
      <stop offset="100%" stop-color="#1e1b4b"/>
    </linearGradient>
    <linearGradient id="accent" x1="0" y1="0" x2="1" y2="0">
      <stop offset="0%" stop-color="#FF6B2C"/>
      <stop offset="100%" stop-color="#a855f7"/>
    </linearGradient>
    <linearGradient id="glow" x1="0" y1="0" x2="0" y2="1">
      <stop offset="0%" stop-color="#6366f1" stop-opacity="0.5"/>
      <stop offset="100%" stop-color="#a855f7" stop-opacity="0.1"/>
    </linearGradient>
    <pattern id="grid" width="28" height="28" patternUnits="userSpaceOnUse">
      <path d="M28 0H0V28" fill="none" stroke="#ffffff" stroke-opacity="0.05"/>
    </pattern>
  </defs>

  <rect width="800" height="600" fill="url(#bg)"/>
  <rect width="800" height="600" fill="url(#grid)"/>
  <ellipse cx="400" cy="300" rx="280" ry="180" fill="url(#glow)"/>
<rect x="90" y="100" width="620" height="400" rx="14" fill="#0f172a" stroke="#6366f1" stroke-opacity="0.45" stroke-width="1.5"/><text x="106" y="128" font-family="system-ui,sans-serif" font-size="11" font-weight="700" fill="#c4b5fd">Workflow Intelligence</text><rect x="140" y="240" width="90" height="50" rx="8" fill="#312e81" stroke="#6366f1"/><text x="185" y="272" text-anchor="middle" font-size="10" fill="#e2e8f0">Trigger</text><rect x="280" y="240" width="90" height="50" rx="8" fill="#312e81" stroke="#a855f7"/><text x="325" y="272" text-anchor="middle" font-size="10" fill="#e2e8f0">AI Step</text><rect x="420" y="240" width="90" height="50" rx="8" fill="#312e81" stroke="#FF6B2C"/><text x="465" y="272" text-anchor="middle" font-size="10" fill="#e2e8f0">Action</text><rect x="560" y="240" width="90" height="50" rx="8" fill="#312e81" stroke="#22c55e"/><text x="605" y="272" text-anchor="middle" font-size="10" fill="#e2e8f0">Complete</text><path d="M230 265 H280 M370 265 H420 M510 265 H560" stroke="#FF6B2C" stroke-width="2"/>
  <text x="780" y="575" text-anchor="end" font-family="system-ui,sans-serif" font-size="11" font-weight="700" fill="#a78bfa" letter-spacing="0.14em">AUTOMATION</text>
</svg>