<svg xmlns="http://www.w3.org/2000/svg" viewBox="0 0 800 600" fill="none" role="img">

  <defs>
    <linearGradient id="bg" x1="0" y1="0" x2="0" y2="1">
      <stop offset="0%" stop-color="#1a2332"/>
      <stop offset="100%" stop-color="#0d1117"/>
    </linearGradient>
    <linearGradient id="sidebar" x1="0" y1="0" x2="1" y2="0">
      <stop offset="0%" stop-color="#161b22"/>
      <stop offset="100%" stop-color="#0d1117"/>
    </linearGradient>
    <linearGradient id="aws" x1="0" y1="0" x2="1" y2="0">
      <stop offset="0%" stop-color="#FF9900"/>
      <stop offset="100%" stop-color="#FF6B2C"/>
    </linearGradient>
    <linearGradient id="azure" x1="0" y1="0" x2="1" y2="0">
      <stop offset="0%" stop-color="#0078D4"/>
      <stop offset="100%" stop-color="#50e6ff"/>
    </linearGradient>
    <pattern id="grid" width="24" height="24" patternUnits="userSpaceOnUse">
      <path d="M24 0H0V24" fill="none" stroke="#ffffff" stroke-opacity="0.03"/>
    </pattern>
  </defs>

  <rect width="800" height="600" fill="url(#bg)"/>
  <rect width="800" height="600" fill="url(#grid)"/>

  <rect x="0" y="0" width="160" height="600" fill="url(#sidebar)"/>
  <rect x="160" y="0" width="640" height="48" fill="#161b22" stroke="#30363d" stroke-width="1"/>
  <text x="180" y="30" font-family="system-ui,sans-serif" font-size="14" font-weight="700" fill="#f0f6fc">Disaster Recovery · Cross-Region</text>
  <circle cx="760" cy="24" r="6" fill="#FF9900"/>
  <rect x="12" y="72" width="136" height="28" rx="6" fill="#21262d" stroke="#FF9900" opacity="0.9"/><text x="24" y="90" font-family="system-ui,sans-serif" font-size="10" fill="#f0f6fc">Backup</text><rect x="12" y="108" width="136" height="28" rx="6" fill="none" opacity="0.9"/><text x="24" y="126" font-family="system-ui,sans-serif" font-size="10" fill="#8b949e">Snapshots</text><rect x="12" y="144" width="136" height="28" rx="6" fill="none" opacity="0.9"/><text x="24" y="162" font-family="system-ui,sans-serif" font-size="10" fill="#8b949e">DR</text><rect x="12" y="180" width="136" height="28" rx="6" fill="none" opacity="0.9"/><text x="24" y="198" font-family="system-ui,sans-serif" font-size="10" fill="#8b949e">Replication</text><rect x="12" y="216" width="136" height="28" rx="6" fill="none" opacity="0.9"/><text x="24" y="234" font-family="system-ui,sans-serif" font-size="10" fill="#8b949e">RTO/RPO</text><rect x="12" y="252" width="136" height="28" rx="6" fill="none" opacity="0.9"/><text x="24" y="270" font-family="system-ui,sans-serif" font-size="10" fill="#8b949e">Failover</text>
  <rect x="176" y="64" width="608" height="520" rx="8" fill="#0d1117" stroke="#30363d"/>
  
  <rect x="200" y="110" width="200" height="90" rx="8" fill="#21262d" stroke="#22c55e"/>
  <text x="230" y="145" font-size="11" fill="#86efac">Primary us-east-1</text>
  <text x="230" y="165" font-size="9" fill="#8b949e">Backup: Enabled</text>
  <path d="M410 155 H490" stroke="#22c55e" stroke-width="2" stroke-dasharray="6 4"/>
  <polygon points="490,155 478,149 478,161" fill="#22c55e"/>
  <text x="430" y="140" font-size="9" fill="#86efac">Replicate</text>
  <rect x="500" y="110" width="220" height="90" rx="8" fill="#21262d" stroke="#22c55e"/>
  <text x="530" y="145" font-size="11" fill="#86efac">DR eu-west-1</text>
  <rect x="200" y="230" width="520" height="150" rx="8" fill="#161b22" stroke="#30363d"/>
  <text x="220" y="260" font-size="11" fill="#f0f6fc">Business Continuity</text>
  <text x="220" y="290" font-size="10" fill="#22c55e">RTO: 15 min · RPO: 5 min · Last test: Passed</text>
  <rect x="220" y="310" width="460" height="12" rx="6" fill="#21262d"/><rect x="220" y="310" width="460" height="12" rx="6" fill="#22c55e" opacity="0.6"/>


  <text x="770" y="582" text-anchor="end" font-family="ui-monospace,monospace" font-size="10" fill="#6b7280">dr</text>
</svg>