<svg xmlns="http://www.w3.org/2000/svg" viewBox="0 0 800 600" fill="none" role="img">

  <defs>
    <linearGradient id="bg" x1="0" y1="0" x2="0" y2="1">
      <stop offset="0%" stop-color="#1a2332"/>
      <stop offset="100%" stop-color="#0d1117"/>
    </linearGradient>
    <linearGradient id="sidebar" x1="0" y1="0" x2="1" y2="0">
      <stop offset="0%" stop-color="#161b22"/>
      <stop offset="100%" stop-color="#0d1117"/>
    </linearGradient>
    <linearGradient id="aws" x1="0" y1="0" x2="1" y2="0">
      <stop offset="0%" stop-color="#FF9900"/>
      <stop offset="100%" stop-color="#FF6B2C"/>
    </linearGradient>
    <linearGradient id="azure" x1="0" y1="0" x2="1" y2="0">
      <stop offset="0%" stop-color="#0078D4"/>
      <stop offset="100%" stop-color="#50e6ff"/>
    </linearGradient>
    <pattern id="grid" width="24" height="24" patternUnits="userSpaceOnUse">
      <path d="M24 0H0V24" fill="none" stroke="#ffffff" stroke-opacity="0.03"/>
    </pattern>
  </defs>

  <rect width="800" height="600" fill="url(#bg)"/>
  <rect width="800" height="600" fill="url(#grid)"/>

  <rect x="0" y="0" width="160" height="600" fill="url(#sidebar)"/>
  <rect x="160" y="0" width="640" height="48" fill="#161b22" stroke="#30363d" stroke-width="1"/>
  <text x="180" y="30" font-family="system-ui,sans-serif" font-size="14" font-weight="700" fill="#f0f6fc">AWS Management Console · Multi-Cloud</text>
  <circle cx="760" cy="24" r="6" fill="#FF9900"/>
  <rect x="12" y="72" width="136" height="28" rx="6" fill="#21262d" stroke="#FF9900" opacity="0.9"/><text x="24" y="90" font-family="system-ui,sans-serif" font-size="10" fill="#f0f6fc">Overview</text><rect x="12" y="108" width="136" height="28" rx="6" fill="none" opacity="0.9"/><text x="24" y="126" font-family="system-ui,sans-serif" font-size="10" fill="#8b949e">EC2</text><rect x="12" y="144" width="136" height="28" rx="6" fill="none" opacity="0.9"/><text x="24" y="162" font-family="system-ui,sans-serif" font-size="10" fill="#8b949e">S3</text><rect x="12" y="180" width="136" height="28" rx="6" fill="none" opacity="0.9"/><text x="24" y="198" font-family="system-ui,sans-serif" font-size="10" fill="#8b949e">VPC</text><rect x="12" y="216" width="136" height="28" rx="6" fill="none" opacity="0.9"/><text x="24" y="234" font-family="system-ui,sans-serif" font-size="10" fill="#8b949e">IAM</text><rect x="12" y="252" width="136" height="28" rx="6" fill="none" opacity="0.9"/><text x="24" y="270" font-family="system-ui,sans-serif" font-size="10" fill="#8b949e">CloudWatch</text>
  <rect x="176" y="64" width="608" height="520" rx="8" fill="#0d1117" stroke="#30363d"/>
  
  <text x="200" y="100" font-size="11" fill="#8b949e">Regions · Accounts · Organizations</text>
  <rect x="200" y="120" width="180" height="100" rx="8" fill="#21262d" stroke="#FF9900" stroke-width="2"/>
  <text x="220" y="155" font-size="12" font-weight="700" fill="#FF9900">AWS</text>
  <text x="220" y="175" font-size="9" fill="#8b949e">24 services active</text>
  <rect x="400" y="120" width="180" height="100" rx="8" fill="#21262d" stroke="#0078D4" stroke-width="2"/>
  <text x="420" y="155" font-size="12" font-weight="700" fill="#50e6ff">Azure</text>
  <text x="420" y="175" font-size="9" fill="#8b949e">18 resources</text>
  <rect x="200" y="250" width="560" height="140" rx="8" fill="#161b22" stroke="#30363d"/>
  <text x="220" y="280" font-size="11" fill="#f0f6fc">Cloud Architecture Map</text>
  <circle cx="280" cy="330" r="20" fill="#FF9900" opacity="0.3"/><text x="272" y="335" font-size="8" fill="#f0f6fc">VPC</text>
  <circle cx="400" cy="310" r="24" fill="#0078D4" opacity="0.3"/><text x="388" y="315" font-size="8" fill="#f0f6fc">EKS</text>
  <circle cx="520" cy="340" r="18" fill="#22c55e" opacity="0.3"/><text x="508" y="345" font-size="8" fill="#f0f6fc">RDS</text>
  <line x1="300" y1="330" x2="380" y2="315" stroke="#FF9900" stroke-width="1.5"/>
  <line x1="420" y1="315" x2="500" y2="335" stroke="#50e6ff" stroke-width="1.5"/>


  <text x="770" y="582" text-anchor="end" font-family="ui-monospace,monospace" font-size="10" fill="#6b7280">cloud console</text>
</svg>