<svg xmlns="http://www.w3.org/2000/svg" viewBox="0 0 800 600" fill="none" role="img">

  <defs>
    <linearGradient id="bg" x1="0" y1="0" x2="0" y2="1">
      <stop offset="0%" stop-color="#1a2332"/>
      <stop offset="100%" stop-color="#0d1117"/>
    </linearGradient>
    <linearGradient id="sidebar" x1="0" y1="0" x2="1" y2="0">
      <stop offset="0%" stop-color="#161b22"/>
      <stop offset="100%" stop-color="#0d1117"/>
    </linearGradient>
    <linearGradient id="aws" x1="0" y1="0" x2="1" y2="0">
      <stop offset="0%" stop-color="#FF9900"/>
      <stop offset="100%" stop-color="#FF6B2C"/>
    </linearGradient>
    <linearGradient id="azure" x1="0" y1="0" x2="1" y2="0">
      <stop offset="0%" stop-color="#0078D4"/>
      <stop offset="100%" stop-color="#50e6ff"/>
    </linearGradient>
    <pattern id="grid" width="24" height="24" patternUnits="userSpaceOnUse">
      <path d="M24 0H0V24" fill="none" stroke="#ffffff" stroke-opacity="0.03"/>
    </pattern>
  </defs>

  <rect width="800" height="600" fill="url(#bg)"/>
  <rect width="800" height="600" fill="url(#grid)"/>

  <rect x="0" y="0" width="160" height="600" fill="url(#sidebar)"/>
  <rect x="160" y="0" width="640" height="48" fill="#161b22" stroke="#30363d" stroke-width="1"/>
  <text x="180" y="30" font-family="system-ui,sans-serif" font-size="14" font-weight="700" fill="#f0f6fc">Microsoft Azure · Public Cloud</text>
  <circle cx="760" cy="24" r="6" fill="#0078D4"/>
  <rect x="12" y="72" width="136" height="28" rx="6" fill="#21262d" stroke="#0078D4" opacity="0.9"/><text x="24" y="90" font-family="system-ui,sans-serif" font-size="10" fill="#f0f6fc">Portal</text><rect x="12" y="108" width="136" height="28" rx="6" fill="none" opacity="0.9"/><text x="24" y="126" font-family="system-ui,sans-serif" font-size="10" fill="#8b949e">Subscriptions</text><rect x="12" y="144" width="136" height="28" rx="6" fill="none" opacity="0.9"/><text x="24" y="162" font-family="system-ui,sans-serif" font-size="10" fill="#8b949e">Resources</text><rect x="12" y="180" width="136" height="28" rx="6" fill="none" opacity="0.9"/><text x="24" y="198" font-family="system-ui,sans-serif" font-size="10" fill="#8b949e">Cost</text><rect x="12" y="216" width="136" height="28" rx="6" fill="none" opacity="0.9"/><text x="24" y="234" font-family="system-ui,sans-serif" font-size="10" fill="#8b949e">Advisor</text><rect x="12" y="252" width="136" height="28" rx="6" fill="none" opacity="0.9"/><text x="24" y="270" font-family="system-ui,sans-serif" font-size="10" fill="#8b949e">Monitor</text>
  <rect x="176" y="64" width="608" height="520" rx="8" fill="#0d1117" stroke="#30363d"/>
  
  <rect x="200" y="95" width="250" height="90" rx="8" fill="#21262d" stroke="url(#azure)" stroke-width="2"/>
  <text x="220" y="125" font-size="13" font-weight="700" fill="#50e6ff">Azure</text>
  <text x="220" y="145" font-size="9" fill="#8b949e">East US · West Europe · APAC</text>
  <rect x="470" y="95" width="250" height="90" rx="8" fill="#21262d" stroke="url(#aws)" stroke-width="2"/>
  <text x="490" y="125" font-size="13" font-weight="700" fill="#FF9900">AWS</text>
  <text x="490" y="145" font-size="9" fill="#8b949e">Multi-region deployment</text>
  <rect x="200" y="210" width="520" height="180" rx="8" fill="#161b22" stroke="#30363d"/>
  <text x="220" y="240" font-size="11" fill="#f0f6fc">Resource Groups</text>
  <rect x="220" y="260" width="480" height="24" rx="4" fill="#21262d"/><text x="230" y="276" font-size="9" fill="#8b949e">prod-web-rg · Running</text>
  <rect x="220" y="292" width="480" height="24" rx="4" fill="#21262d"/><text x="230" y="308" font-size="9" fill="#8b949e">prod-data-rg · Running</text>
  <rect x="220" y="324" width="480" height="24" rx="4" fill="#21262d"/><text x="230" y="340" font-size="9" fill="#8b949e">shared-network · Active</text>


  <text x="770" y="582" text-anchor="end" font-family="ui-monospace,monospace" font-size="10" fill="#6b7280">public cloud</text>
</svg>