<svg xmlns="http://www.w3.org/2000/svg" viewBox="0 0 400 260" fill="none" role="img" aria-label="Search engine marketing illustration">
  <ellipse cx="200" cy="232" rx="130" ry="16" fill="#0F172A" opacity="0.06"/>
  <circle cx="108" cy="92" r="34" fill="#FDE68A"/>
  <path d="M76 156c0-26 14-44 32-44s32 18 32 44" fill="#6366F1"/>
  <circle cx="108" cy="84" r="18" fill="#FDBA74"/>
  <rect x="152" y="56" width="168" height="44" rx="14" fill="white" stroke="#CBD5E1" stroke-width="2"/>
  <circle cx="176" cy="78" r="12" stroke="#FF8A00" stroke-width="3"/>
  <path d="M184 86l8 8" stroke="#FF8A00" stroke-width="3" stroke-linecap="round"/>
  <rect x="200" y="70" width="88" height="8" rx="4" fill="#0F172A" opacity="0.75"/>
  <rect x="200" y="84" width="64" height="6" rx="3" fill="#CBD5E1"/>
  <rect x="152" y="112" width="168" height="28" rx="10" fill="#FFF7ED" stroke="#FF8A00" stroke-width="2"/>
  <text x="168" y="132" fill="#FF8A00" font-size="11" font-family="system-ui,sans-serif" font-weight="700">Sponsored · Targeted Ad</text>
  <circle cx="300" cy="168" r="30" fill="#FEE2E2"/>
  <circle cx="300" cy="168" r="18" fill="none" stroke="#EF4444" stroke-width="3"/>
  <circle cx="300" cy="168" r="6" fill="#EF4444"/>
  <path d="M312 180l16 16" stroke="#EF4444" stroke-width="3" stroke-linecap="round"/>
  <rect x="56" y="176" width="88" height="44" rx="12" fill="#EEF2FF" stroke="#6366F1" stroke-width="2"/>
  <text x="72" y="198" fill="#4F46E5" font-size="10" font-family="system-ui,sans-serif" font-weight="700">Keywords</text>
  <rect x="72" y="204" width="24" height="6" rx="3" fill="#A5B4FC"/>
  <rect x="100" y="204" width="32" height="6" rx="3" fill="#C7D2FE"/>
  <path d="M188 188c20-10 42-6 56 8s38 12 58 0" stroke="#22C55E" stroke-width="3" stroke-linecap="round"/>
  <circle cx="188" cy="188" r="6" fill="#22C55E"/>
  <circle cx="244" cy="180" r="6" fill="#FF8A00"/>
  <circle cx="302" cy="188" r="6" fill="#3B82F6"/>
</svg>
