<svg xmlns="http://www.w3.org/2000/svg" viewBox="0 0 360 200" fill="none" role="img" aria-label="SEO growth illustration">
  <circle cx="300" cy="40" r="44" fill="white" fill-opacity="0.12"/>
  <rect x="32" y="40" width="160" height="48" rx="14" fill="white" fill-opacity="0.18" stroke="white" stroke-opacity="0.35"/>
  <circle cx="56" cy="64" r="10" stroke="white" stroke-width="2"/>
  <path d="M62 70l5 5" stroke="white" stroke-width="2" stroke-linecap="round"/>
  <rect x="76" y="56" width="80" height="7" rx="3.5" fill="white" fill-opacity="0.8"/>
  <rect x="76" y="70" width="56" height="5" rx="2.5" fill="white" fill-opacity="0.45"/>
  <rect x="208" y="28" width="120" height="104" rx="18" fill="white" fill-opacity="0.15" stroke="white" stroke-opacity="0.35"/>
  <path d="M232 108 L256 84 L280 92 L304 56 L328 44" stroke="white" stroke-width="3.5" stroke-linecap="round" stroke-linejoin="round"/>
  <circle cx="328" cy="44" r="6" fill="white"/>
  <text x="248" y="52" fill="white" font-size="11" font-family="system-ui,sans-serif" font-weight="700" opacity="0.8">Rankings</text>
  <rect x="32" y="104" width="96" height="72" rx="14" fill="white" fill-opacity="0.15"/>
  <text x="48" y="132" fill="white" font-size="14" font-family="system-ui,sans-serif" font-weight="800">#1</text>
  <rect x="72" y="124" width="44" height="6" rx="3" fill="white" fill-opacity="0.75"/>
  <text x="48" y="154" fill="white" font-size="14" font-family="system-ui,sans-serif" font-weight="800" opacity="0.6">#2</text>
  <rect x="72" y="146" width="36" height="6" rx="3" fill="white" fill-opacity="0.45"/>
  <rect x="144" y="104" width="48" height="72" rx="14" fill="white" fill-opacity="0.12"/>
  <rect x="156" y="148" width="12" height="20" rx="3" fill="white" fill-opacity="0.35"/>
  <rect x="172" y="132" width="12" height="36" rx="3" fill="white" fill-opacity="0.55"/>
  <rect x="188" y="116" width="12" height="52" rx="3" fill="white" fill-opacity="0.85"/>
</svg>
